<svg xmlns="http://www.w3.org/2000/svg" viewBox="0 0 205.55 191.74"><defs><style>.cls-1{fill:#269470;}.cls-1,.cls-2,.cls-4{stroke:#004503;stroke-miterlimit:10;}.cls-1,.cls-2{stroke-width:4px;}.cls-2{fill:#279f7c;}.cls-3{fill:#28916f;}.cls-4{fill:none;stroke-width:2px;}.cls-5{fill:#b4ffe1;}</style></defs><g id="Capa_2" data-name="Capa 2"><g id="Capa_1-2" data-name="Capa 1"><path class="cls-1" d="M203.55,97.24c0,51.37-38.13,92.5-89.5,92.5s-104-10-112-93c-2-53,53-105,112-93C164.05,5.74,203.55,45.88,203.55,97.24Z"/><circle class="cls-2" cx="95.05" cy="96.74" r="93"/><path class="cls-3" d="M130.36,28.24C78.12-9-28.51,71.28,42.64,148.5,10.38,72.16,64.57,27.67,130.36,28.24Z"/><circle class="cls-4" cx="96.55" cy="96.24" r="76.5"/><path class="cls-5" d="M81,138.11c0-6.74,0-13.48,0-20.23,0-1.16-.27-1.44-1.48-1.55-5.9-.54-11.82-.93-17.69-1.92a67.22,67.22,0,0,1-16.65-4.64,14.37,14.37,0,0,1-3.44-2.2c-2.88-2.46-3-5.88-.15-8.43,2.55-2.31,5.71-3.37,8.9-4.36a109.34,109.34,0,0,1,15.05-3.35,69.37,69.37,0,0,1,7.75-.75c2.21-.11,4.4-.6,6.62-.37.7.07,1.07-.25,1.06-1,0-4,0-8.11,0-12.17,0-1.18-.79-.89-1.4-.88-5.71.1-11.41.25-17.12.32-3.83,0-7.66,0-11.48,0-1,0-1.54-.15-1.53-1.38q.08-10.55,0-21.09c0-1.2.43-1.56,1.6-1.57,6.45-.07,12.91-.12,19.35-.35,13.52-.48,27.05-.79,40.58-1,9.07-.17,18.15-.43,27.22-.71,1.3,0,1.68.37,1.67,1.64q-.06,10.89,0,21.77c0,1.21-.43,1.63-1.59,1.61-1.88,0-3.77,0-5.65.06-8.23.12-16.45.26-24.67.34-1.13,0-1.44.31-1.42,1.45.09,3.65.08,7.31,0,11,0,.85,0,1.36,1.08,1.44.54,0,1.1.21,1.67.22a156.31,156.31,0,0,1,20.25,2,70.55,70.55,0,0,1,15.49,3.79,20.28,20.28,0,0,1,5.47,3.1c3,2.43,3.08,5.91.21,8.49s-6.77,3.88-10.56,4.9a123.26,123.26,0,0,1-17,3.15,145,145,0,0,1-15.15,1.25c-1.15,0-1.55.25-1.54,1.52,0,13.37,0,26.74-.09,40.11,0,2.47,0,2.44-2.44,2.39-7-.14-14-.29-21.06-.34-1.48,0-2-.42-2-1.95.08-6.74,0-13.48,0-20.23ZM106.6,101h-.11c0,2.11,0,4.22,0,6.34,0,.78-.15,1.39-1.11,1.3-2-.19-4,.26-5.95.31-5.76.17-11.5-.27-17.25-.37-1.06,0-1.21-.46-1.2-1.35,0-3.88,0-7.77,0-11.65,0-1.25-.38-1.61-1.54-1.46-2.07.26-4.14.54-6.22.68a89.33,89.33,0,0,0-17.8,3c-3.55,1-7.16,1.9-10.3,4-1.67,1.1-1.65,2,.05,3a31,31,0,0,0,8.57,3.28c9.21,2.42,18.66,3.18,28.1,3.78,4.25.27,8.53.2,12.79.36,2.54.1,5.1-.33,7.65-.26,3.77.1,7.5-.38,11.25-.44a41.52,41.52,0,0,0,4.58-.35c4.78-.62,9.56-1.23,14.31-2a45.74,45.74,0,0,0,13.28-3.92c.94-.46,2.34-.83,2.32-2s-1.31-1.77-2.32-2.27c-4.94-2.44-10.26-3.67-15.61-4.71a104.12,104.12,0,0,0-10.89-1.53c-3.76-.32-7.5-.88-11.29-.92-1.17,0-1.44.4-1.38,1.51C106.68,97.18,106.6,99.07,106.6,101Z"/></g></g></svg>